<?xml version="1.0" encoding="UTF-8" standalone="no"?>
<!DOCTYPE svg PUBLIC "-//W3C//DTD SVG 1.1//EN"
 "http://www.w3.org/Graphics/SVG/1.1/DTD/svg11.dtd">
<!-- Generated by graphviz version 2.43.0 (0)
 -->
<!-- Title: FST Pages: 1 -->
<svg width="383pt" height="90pt"
 viewBox="0.00 0.00 383.24 90.04" xmlns="http://www.w3.org/2000/svg" xmlns:xlink="http://www.w3.org/1999/xlink">
<g id="graph0" class="graph" transform="scale(1 1) rotate(0) translate(4 86.04)">
<title>FST</title>
<polygon fill="white" stroke="transparent" points="-4,4 -4,-86.04 379.24,-86.04 379.24,4 -4,4"/>
<!-- 0 -->
<g id="node1" class="node">
<title>0</title>
<ellipse fill="none" stroke="black" stroke-width="2" cx="18" cy="-32.04" rx="18" ry="18"/>
<text text-anchor="middle" x="18" y="-27.84" font-family="Times,serif" font-size="14.00">0</text>
</g>
<!-- 1 -->
<g id="node2" class="node">
<title>1</title>
<ellipse fill="none" stroke="black" cx="123.28" cy="-32.04" rx="18" ry="18"/>
<text text-anchor="middle" x="123.28" y="-27.84" font-family="Times,serif" font-size="14.00">1</text>
</g>
<!-- 0&#45;&gt;1 -->
<g id="edge1" class="edge">
<title>0&#45;&gt;1</title>
<path fill="none" stroke="black" d="M36.05,-32.04C52.13,-32.04 76.47,-32.04 95.19,-32.04"/>
<polygon fill="black" stroke="black" points="95.2,-35.54 105.2,-32.04 95.2,-28.54 95.2,-35.54"/>
<text text-anchor="middle" x="70.64" y="-34.84" font-family="Times,serif" font-size="14.00">b:b/1.2</text>
</g>
<!-- 0&#45;&gt;1 -->
<g id="edge2" class="edge">
<title>0&#45;&gt;1</title>
<path fill="none" stroke="black" d="M33.3,-21.93C38.6,-18.76 44.83,-15.66 51,-14.04 67.89,-9.62 73.39,-9.62 90.28,-14.04 93.17,-14.8 96.07,-15.88 98.89,-17.15"/>
<polygon fill="black" stroke="black" points="97.5,-20.37 107.98,-21.93 100.77,-14.18 97.5,-20.37"/>
<text text-anchor="middle" x="70.64" y="-16.84" font-family="Times,serif" font-size="14.00">j:j/1.2</text>
</g>
<!-- 1&#45;&gt;1 -->
<g id="edge4" class="edge">
<title>1&#45;&gt;1</title>
<path fill="none" stroke="black" d="M114.3,-47.96C111.96,-58.19 114.95,-68.04 123.28,-68.04 128.74,-68.04 131.91,-63.8 132.78,-57.99"/>
<polygon fill="black" stroke="black" points="136.28,-57.76 132.26,-47.96 129.28,-58.12 136.28,-57.76"/>
<text text-anchor="middle" x="123.28" y="-70.84" font-family="Times,serif" font-size="14.00">h:h/1.2</text>
</g>
<!-- 2 -->
<g id="node3" class="node">
<title>2</title>
<ellipse fill="none" stroke="black" cx="228.56" cy="-32.04" rx="18" ry="18"/>
<text text-anchor="middle" x="228.56" y="-27.84" font-family="Times,serif" font-size="14.00">2</text>
</g>
<!-- 1&#45;&gt;2 -->
<g id="edge3" class="edge">
<title>1&#45;&gt;2</title>
<path fill="none" stroke="black" d="M141.33,-32.04C157.41,-32.04 181.75,-32.04 200.47,-32.04"/>
<polygon fill="black" stroke="black" points="200.48,-35.54 210.48,-32.04 200.48,-28.54 200.48,-35.54"/>
<text text-anchor="middle" x="175.92" y="-34.84" font-family="Times,serif" font-size="14.00">d:d/1.2</text>
</g>
<!-- 3 -->
<g id="node4" class="node">
<title>3</title>
<ellipse fill="none" stroke="black" cx="343.2" cy="-32.04" rx="28.07" ry="28.07"/>
<ellipse fill="none" stroke="black" cx="343.2" cy="-32.04" rx="32.08" ry="32.08"/>
<text text-anchor="middle" x="343.2" y="-27.84" font-family="Times,serif" font-size="14.00">3/0.2</text>
</g>
<!-- 2&#45;&gt;3 -->
<g id="edge5" class="edge">
<title>2&#45;&gt;3</title>
<path fill="none" stroke="black" d="M246.67,-32.04C261,-32.04 282.06,-32.04 300.76,-32.04"/>
<polygon fill="black" stroke="black" points="300.85,-35.54 310.85,-32.04 300.85,-28.54 300.85,-35.54"/>
<text text-anchor="middle" x="278.86" y="-34.84" font-family="Times,serif" font-size="14.00">f:f/1.2</text>
</g>
</g>
</svg>
