<?xml version="1.0" encoding="UTF-8" standalone="no"?>
<!DOCTYPE svg PUBLIC "-//W3C//DTD SVG 1.1//EN"
 "http://www.w3.org/Graphics/SVG/1.1/DTD/svg11.dtd">
<!-- Generated by graphviz version 2.43.0 (0)
 -->
<!-- Title: FST Pages: 1 -->
<svg width="383pt" height="90pt"
 viewBox="0.00 0.00 383.20 90.04" xmlns="http://www.w3.org/2000/svg" xmlns:xlink="http://www.w3.org/1999/xlink">
<g id="graph0" class="graph" transform="scale(1 1) rotate(0) translate(4 86.04)">
<title>FST</title>
<polygon fill="white" stroke="transparent" points="-4,4 -4,-86.04 379.2,-86.04 379.2,4 -4,4"/>
<!-- 0 -->
<g id="node1" class="node">
<title>0</title>
<ellipse fill="none" stroke="black" stroke-width="2" cx="18" cy="-32.04" rx="18" ry="18"/>
<text text-anchor="middle" x="18" y="-27.84" font-family="Times,serif" font-size="14.00">0</text>
</g>
<!-- 1 -->
<g id="node2" class="node">
<title>1</title>
<ellipse fill="none" stroke="black" cx="121.71" cy="-32.04" rx="18" ry="18"/>
<text text-anchor="middle" x="121.71" y="-27.84" font-family="Times,serif" font-size="14.00">1</text>
</g>
<!-- 0&#45;&gt;1 -->
<g id="edge1" class="edge">
<title>0&#45;&gt;1</title>
<path fill="none" stroke="black" d="M36.25,-32.04C51.89,-32.04 75.19,-32.04 93.36,-32.04"/>
<polygon fill="black" stroke="black" points="93.37,-35.54 103.37,-32.04 93.37,-28.54 93.37,-35.54"/>
<text text-anchor="middle" x="69.85" y="-34.84" font-family="Times,serif" font-size="14.00">a:a/1.2</text>
</g>
<!-- 0&#45;&gt;1 -->
<g id="edge2" class="edge">
<title>0&#45;&gt;1</title>
<path fill="none" stroke="black" d="M33.3,-21.93C38.6,-18.76 44.83,-15.66 51,-14.04 67.21,-9.79 72.5,-9.79 88.71,-14.04 91.6,-14.8 94.5,-15.88 97.32,-17.15"/>
<polygon fill="black" stroke="black" points="95.93,-20.37 106.41,-21.93 99.19,-14.18 95.93,-20.37"/>
<text text-anchor="middle" x="69.85" y="-16.84" font-family="Times,serif" font-size="14.00">i:i/1.2</text>
</g>
<!-- 1&#45;&gt;1 -->
<g id="edge4" class="edge">
<title>1&#45;&gt;1</title>
<path fill="none" stroke="black" d="M113.07,-47.96C110.82,-58.19 113.7,-68.04 121.71,-68.04 126.96,-68.04 130.01,-63.8 130.84,-57.99"/>
<polygon fill="black" stroke="black" points="134.34,-57.77 130.34,-47.96 127.35,-58.12 134.34,-57.77"/>
<text text-anchor="middle" x="121.71" y="-70.84" font-family="Times,serif" font-size="14.00">g:g/1.2</text>
</g>
<!-- 2 -->
<g id="node3" class="node">
<title>2</title>
<ellipse fill="none" stroke="black" cx="225.41" cy="-32.04" rx="18" ry="18"/>
<text text-anchor="middle" x="225.41" y="-27.84" font-family="Times,serif" font-size="14.00">2</text>
</g>
<!-- 1&#45;&gt;2 -->
<g id="edge3" class="edge">
<title>1&#45;&gt;2</title>
<path fill="none" stroke="black" d="M139.96,-32.04C155.59,-32.04 178.9,-32.04 197.07,-32.04"/>
<polygon fill="black" stroke="black" points="197.08,-35.54 207.08,-32.04 197.08,-28.54 197.08,-35.54"/>
<text text-anchor="middle" x="173.56" y="-34.84" font-family="Times,serif" font-size="14.00">c:c/1.2</text>
</g>
<!-- 3 -->
<g id="node4" class="node">
<title>3</title>
<ellipse fill="none" stroke="black" cx="343.16" cy="-32.04" rx="28.07" ry="28.07"/>
<ellipse fill="none" stroke="black" cx="343.16" cy="-32.04" rx="32.08" ry="32.08"/>
<text text-anchor="middle" x="343.16" y="-27.84" font-family="Times,serif" font-size="14.00">3/0.2</text>
</g>
<!-- 2&#45;&gt;3 -->
<g id="edge5" class="edge">
<title>2&#45;&gt;3</title>
<path fill="none" stroke="black" d="M243.49,-32.04C258.59,-32.04 281.24,-32.04 301.02,-32.04"/>
<polygon fill="black" stroke="black" points="301.05,-35.54 311.05,-32.04 301.05,-28.54 301.05,-35.54"/>
<text text-anchor="middle" x="277.27" y="-34.84" font-family="Times,serif" font-size="14.00">e:e/1.2</text>
</g>
</g>
</svg>
