<?xml version="1.0" encoding="UTF-8" standalone="no"?>
<!DOCTYPE svg PUBLIC "-//W3C//DTD SVG 1.1//EN"
 "http://www.w3.org/Graphics/SVG/1.1/DTD/svg11.dtd">
<!-- Generated by graphviz version 2.43.0 (0)
 -->
<!-- Title: FST Pages: 1 -->
<svg width="383pt" height="90pt"
 viewBox="0.00 0.00 383.22 90.04" xmlns="http://www.w3.org/2000/svg" xmlns:xlink="http://www.w3.org/1999/xlink">
<g id="graph0" class="graph" transform="scale(1 1) rotate(0) translate(4 86.04)">
<title>FST</title>
<polygon fill="white" stroke="transparent" points="-4,4 -4,-86.04 379.22,-86.04 379.22,4 -4,4"/>
<!-- 0 -->
<g id="node1" class="node">
<title>0</title>
<ellipse fill="none" stroke="black" stroke-width="2" cx="18" cy="-32.04" rx="18" ry="18"/>
<text text-anchor="middle" x="18" y="-27.84" font-family="Times,serif" font-size="14.00">0</text>
</g>
<!-- 1 -->
<g id="node2" class="node">
<title>1</title>
<ellipse fill="none" stroke="black" cx="122.49" cy="-32.04" rx="18" ry="18"/>
<text text-anchor="middle" x="122.49" y="-27.84" font-family="Times,serif" font-size="14.00">1</text>
</g>
<!-- 0&#45;&gt;1 -->
<g id="edge1" class="edge">
<title>0&#45;&gt;1</title>
<path fill="none" stroke="black" d="M36.39,-32.04C52.24,-32.04 75.91,-32.04 94.27,-32.04"/>
<polygon fill="black" stroke="black" points="94.36,-35.54 104.36,-32.04 94.36,-28.54 94.36,-35.54"/>
<text text-anchor="middle" x="70.25" y="-34.84" font-family="Times,serif" font-size="14.00">a:b/1.2</text>
</g>
<!-- 0&#45;&gt;1 -->
<g id="edge2" class="edge">
<title>0&#45;&gt;1</title>
<path fill="none" stroke="black" d="M33.3,-21.93C38.6,-18.76 44.83,-15.66 51,-14.04 67.55,-9.7 72.94,-9.7 89.49,-14.04 92.38,-14.8 95.29,-15.88 98.11,-17.15"/>
<polygon fill="black" stroke="black" points="96.72,-20.37 107.2,-21.93 99.98,-14.18 96.72,-20.37"/>
<text text-anchor="middle" x="70.25" y="-16.84" font-family="Times,serif" font-size="14.00">i:j/1.2</text>
</g>
<!-- 1&#45;&gt;1 -->
<g id="edge4" class="edge">
<title>1&#45;&gt;1</title>
<path fill="none" stroke="black" d="M113.51,-47.96C111.17,-58.19 114.17,-68.04 122.49,-68.04 127.96,-68.04 131.13,-63.8 132,-57.99"/>
<polygon fill="black" stroke="black" points="135.49,-57.76 131.47,-47.96 128.5,-58.12 135.49,-57.76"/>
<text text-anchor="middle" x="122.49" y="-70.84" font-family="Times,serif" font-size="14.00">g:h/1.2</text>
</g>
<!-- 2 -->
<g id="node3" class="node">
<title>2</title>
<ellipse fill="none" stroke="black" cx="226.99" cy="-32.04" rx="18" ry="18"/>
<text text-anchor="middle" x="226.99" y="-27.84" font-family="Times,serif" font-size="14.00">2</text>
</g>
<!-- 1&#45;&gt;2 -->
<g id="edge3" class="edge">
<title>1&#45;&gt;2</title>
<path fill="none" stroke="black" d="M140.88,-32.04C156.73,-32.04 180.4,-32.04 198.76,-32.04"/>
<polygon fill="black" stroke="black" points="198.86,-35.54 208.86,-32.04 198.86,-28.54 198.86,-35.54"/>
<text text-anchor="middle" x="174.74" y="-34.84" font-family="Times,serif" font-size="14.00">c:d/1.2</text>
</g>
<!-- 3 -->
<g id="node4" class="node">
<title>3</title>
<ellipse fill="none" stroke="black" cx="343.18" cy="-32.04" rx="28.07" ry="28.07"/>
<ellipse fill="none" stroke="black" cx="343.18" cy="-32.04" rx="32.08" ry="32.08"/>
<text text-anchor="middle" x="343.18" y="-27.84" font-family="Times,serif" font-size="14.00">3/0.2</text>
</g>
<!-- 2&#45;&gt;3 -->
<g id="edge5" class="edge">
<title>2&#45;&gt;3</title>
<path fill="none" stroke="black" d="M245.33,-32.04C260.03,-32.04 281.72,-32.04 300.84,-32.04"/>
<polygon fill="black" stroke="black" points="300.85,-35.54 310.85,-32.04 300.85,-28.54 300.85,-35.54"/>
<text text-anchor="middle" x="278.06" y="-34.84" font-family="Times,serif" font-size="14.00">e:f/1.2</text>
</g>
</g>
</svg>
